<?xml version="1.0" encoding="UTF-8"?>
<svg width="512" height="512" xmlns="http://www.w3.org/2000/svg">
  <defs>
    <linearGradient id="grad512" x1="0%" y1="0%" x2="100%" y2="100%">
      <stop offset="0%" style="stop-color:#07C160;stop-opacity:1" />
      <stop offset="100%" style="stop-color:#06A94D;stop-opacity:1" />
    </linearGradient>
  </defs>
  
  <!-- Background circle -->
  <circle cx="256" cy="256" r="220" fill="url(#grad512)"/>
  
  <!-- Chat bubble -->
  <g fill="white">
    <!-- Main chat bubble -->
    <path d="M130 200 C130 170, 160 140, 190 140 L370 140 C400 140, 430 170, 430 200 L430 280 C430 310, 400 340, 370 340 L260 340 L190 385 L190 340 C160 340, 130 310, 130 280 Z"/>
    
    <!-- Message lines -->
    <rect x="170" y="190" width="180" height="16" rx="8" fill="rgba(7,193,96,0.8)"/>
    <rect x="170" y="220" width="140" height="16" rx="8" fill="rgba(7,193,96,0.8)"/>
    <rect x="170" y="250" width="100" height="16" rx="8" fill="rgba(7,193,96,0.8)"/>
  </g>
</svg>